<mxfile host="app.diagrams.net" agent="Mozilla/5.0 (Windows NT 10.0; Win64; x64) AppleWebKit/537.36 (KHTML, like Gecko) Chrome/132.0.0.0 Safari/537.36" version="26.0.11">
  <diagram name="Page-1" id="_Un33e683ED_zDzxQhV4">
    <mxGraphModel dx="3000" dy="1491" grid="1" gridSize="10" guides="1" tooltips="1" connect="1" arrows="1" fold="1" page="1" pageScale="1" pageWidth="850" pageHeight="1100" math="0" shadow="0">
      <root>
        <mxCell id="0" />
        <mxCell id="1" parent="0" />
        <mxCell id="DCzcrUHX8vKdMjeq_GXW-4" value="Post Comment" style="whiteSpace=wrap;html=1;align=center;" vertex="1" parent="1">
          <mxGeometry x="180" y="310" width="100" height="40" as="geometry" />
        </mxCell>
        <mxCell id="DCzcrUHX8vKdMjeq_GXW-5" value="Comment_id" style="ellipse;whiteSpace=wrap;html=1;align=center;" vertex="1" parent="1">
          <mxGeometry x="60" y="210" width="80" height="30" as="geometry" />
        </mxCell>
        <mxCell id="DCzcrUHX8vKdMjeq_GXW-6" value="Time Stamp" style="ellipse;whiteSpace=wrap;html=1;align=center;" vertex="1" parent="1">
          <mxGeometry x="20" y="270" width="80" height="30" as="geometry" />
        </mxCell>
        <mxCell id="DCzcrUHX8vKdMjeq_GXW-7" value="Content" style="ellipse;whiteSpace=wrap;html=1;align=center;" vertex="1" parent="1">
          <mxGeometry x="20" y="320" width="100" height="40" as="geometry" />
        </mxCell>
        <mxCell id="DCzcrUHX8vKdMjeq_GXW-8" value="" style="endArrow=none;html=1;rounded=0;entryX=1;entryY=1;entryDx=0;entryDy=0;" edge="1" parent="1" source="DCzcrUHX8vKdMjeq_GXW-4" target="DCzcrUHX8vKdMjeq_GXW-5">
          <mxGeometry relative="1" as="geometry">
            <mxPoint x="370" y="320" as="sourcePoint" />
            <mxPoint x="530" y="320" as="targetPoint" />
            <Array as="points" />
          </mxGeometry>
        </mxCell>
        <mxCell id="DCzcrUHX8vKdMjeq_GXW-9" value="" style="endArrow=none;html=1;rounded=0;entryX=1;entryY=0;entryDx=0;entryDy=0;" edge="1" parent="1" source="DCzcrUHX8vKdMjeq_GXW-4" target="DCzcrUHX8vKdMjeq_GXW-6">
          <mxGeometry relative="1" as="geometry">
            <mxPoint x="650" y="320" as="sourcePoint" />
            <mxPoint x="810" y="320" as="targetPoint" />
          </mxGeometry>
        </mxCell>
        <mxCell id="DCzcrUHX8vKdMjeq_GXW-10" value="" style="endArrow=none;html=1;rounded=0;entryX=1;entryY=0;entryDx=0;entryDy=0;" edge="1" parent="1" target="DCzcrUHX8vKdMjeq_GXW-7">
          <mxGeometry relative="1" as="geometry">
            <mxPoint x="180" y="340" as="sourcePoint" />
            <mxPoint x="1070" y="310" as="targetPoint" />
          </mxGeometry>
        </mxCell>
        <mxCell id="DCzcrUHX8vKdMjeq_GXW-11" value="User Profile" style="whiteSpace=wrap;html=1;align=center;" vertex="1" parent="1">
          <mxGeometry x="630" y="300" width="100" height="40" as="geometry" />
        </mxCell>
        <mxCell id="DCzcrUHX8vKdMjeq_GXW-15" style="edgeStyle=orthogonalEdgeStyle;rounded=0;orthogonalLoop=1;jettySize=auto;html=1;exitX=1;exitY=0.5;exitDx=0;exitDy=0;entryX=0;entryY=0.5;entryDx=0;entryDy=0;" edge="1" parent="1" source="DCzcrUHX8vKdMjeq_GXW-13" target="DCzcrUHX8vKdMjeq_GXW-11">
          <mxGeometry relative="1" as="geometry">
            <Array as="points">
              <mxPoint x="630" y="325" />
            </Array>
          </mxGeometry>
        </mxCell>
        <mxCell id="DCzcrUHX8vKdMjeq_GXW-13" value="comments" style="shape=rhombus;perimeter=rhombusPerimeter;whiteSpace=wrap;html=1;align=center;" vertex="1" parent="1">
          <mxGeometry x="380" y="300" width="90" height="50" as="geometry" />
        </mxCell>
        <mxCell id="DCzcrUHX8vKdMjeq_GXW-17" value="" style="shape=link;html=1;rounded=0;entryX=0;entryY=0.5;entryDx=0;entryDy=0;exitX=1;exitY=0.5;exitDx=0;exitDy=0;" edge="1" parent="1" source="DCzcrUHX8vKdMjeq_GXW-4" target="DCzcrUHX8vKdMjeq_GXW-13">
          <mxGeometry relative="1" as="geometry">
            <mxPoint x="320" y="410" as="sourcePoint" />
            <mxPoint x="480" y="410" as="targetPoint" />
            <Array as="points" />
          </mxGeometry>
        </mxCell>
        <mxCell id="DCzcrUHX8vKdMjeq_GXW-19" value="age" style="ellipse;whiteSpace=wrap;html=1;align=center;dashed=1;" vertex="1" parent="1">
          <mxGeometry x="720" y="210" width="80" height="30" as="geometry" />
        </mxCell>
        <mxCell id="DCzcrUHX8vKdMjeq_GXW-21" value="" style="endArrow=none;html=1;rounded=0;entryX=0.337;entryY=1.067;entryDx=0;entryDy=0;entryPerimeter=0;exitX=1;exitY=0;exitDx=0;exitDy=0;" edge="1" parent="1" source="DCzcrUHX8vKdMjeq_GXW-11" target="DCzcrUHX8vKdMjeq_GXW-19">
          <mxGeometry relative="1" as="geometry">
            <mxPoint x="590" y="350" as="sourcePoint" />
            <mxPoint x="750" y="350" as="targetPoint" />
          </mxGeometry>
        </mxCell>
        <mxCell id="DCzcrUHX8vKdMjeq_GXW-22" value="DOB" style="ellipse;whiteSpace=wrap;html=1;align=center;" vertex="1" parent="1">
          <mxGeometry x="790" y="250" width="80" height="30" as="geometry" />
        </mxCell>
        <mxCell id="DCzcrUHX8vKdMjeq_GXW-23" value="" style="endArrow=none;html=1;rounded=0;entryX=0;entryY=1;entryDx=0;entryDy=0;exitX=1;exitY=0.25;exitDx=0;exitDy=0;" edge="1" parent="1" source="DCzcrUHX8vKdMjeq_GXW-11" target="DCzcrUHX8vKdMjeq_GXW-22">
          <mxGeometry relative="1" as="geometry">
            <mxPoint x="570" y="350" as="sourcePoint" />
            <mxPoint x="730" y="350" as="targetPoint" />
          </mxGeometry>
        </mxCell>
        <mxCell id="DCzcrUHX8vKdMjeq_GXW-24" value="Name" style="ellipse;whiteSpace=wrap;html=1;align=center;" vertex="1" parent="1">
          <mxGeometry x="570" y="130" width="100" height="40" as="geometry" />
        </mxCell>
        <mxCell id="DCzcrUHX8vKdMjeq_GXW-26" value="" style="endArrow=none;html=1;rounded=0;exitX=0.5;exitY=1;exitDx=0;exitDy=0;entryX=0.75;entryY=0;entryDx=0;entryDy=0;" edge="1" parent="1" target="DCzcrUHX8vKdMjeq_GXW-11">
          <mxGeometry relative="1" as="geometry">
            <mxPoint x="720" y="130" as="sourcePoint" />
            <mxPoint x="730" y="350" as="targetPoint" />
          </mxGeometry>
        </mxCell>
        <mxCell id="DCzcrUHX8vKdMjeq_GXW-27" value="" style="endArrow=none;html=1;rounded=0;exitX=0.5;exitY=1;exitDx=0;exitDy=0;entryX=0.5;entryY=0;entryDx=0;entryDy=0;" edge="1" parent="1" source="DCzcrUHX8vKdMjeq_GXW-24" target="DCzcrUHX8vKdMjeq_GXW-11">
          <mxGeometry relative="1" as="geometry">
            <mxPoint x="570" y="350" as="sourcePoint" />
            <mxPoint x="730" y="350" as="targetPoint" />
          </mxGeometry>
        </mxCell>
        <mxCell id="DCzcrUHX8vKdMjeq_GXW-28" value="First Name" style="ellipse;whiteSpace=wrap;html=1;align=center;" vertex="1" parent="1">
          <mxGeometry x="460" y="50" width="90" height="30" as="geometry" />
        </mxCell>
        <mxCell id="DCzcrUHX8vKdMjeq_GXW-29" value="last Name" style="ellipse;whiteSpace=wrap;html=1;align=center;" vertex="1" parent="1">
          <mxGeometry x="580" y="40" width="70" height="40" as="geometry" />
        </mxCell>
        <mxCell id="DCzcrUHX8vKdMjeq_GXW-30" value="" style="endArrow=none;html=1;rounded=0;entryX=0.626;entryY=-0.1;entryDx=0;entryDy=0;entryPerimeter=0;" edge="1" parent="1" target="DCzcrUHX8vKdMjeq_GXW-24">
          <mxGeometry relative="1" as="geometry">
            <mxPoint x="610" y="80" as="sourcePoint" />
            <mxPoint x="770" y="80" as="targetPoint" />
          </mxGeometry>
        </mxCell>
        <mxCell id="DCzcrUHX8vKdMjeq_GXW-31" value="" style="endArrow=none;html=1;rounded=0;entryX=0.374;entryY=-0.1;entryDx=0;entryDy=0;entryPerimeter=0;" edge="1" parent="1" target="DCzcrUHX8vKdMjeq_GXW-24">
          <mxGeometry relative="1" as="geometry">
            <mxPoint x="500" y="80" as="sourcePoint" />
            <mxPoint x="660" y="80" as="targetPoint" />
          </mxGeometry>
        </mxCell>
        <mxCell id="DCzcrUHX8vKdMjeq_GXW-33" value="&lt;span style=&quot;border-bottom: 1px dotted&quot;&gt;UserName&lt;/span&gt;" style="ellipse;whiteSpace=wrap;html=1;align=center;" vertex="1" parent="1">
          <mxGeometry x="460" y="247.5" width="100" height="32.5" as="geometry" />
        </mxCell>
        <mxCell id="DCzcrUHX8vKdMjeq_GXW-34" value="" style="endArrow=none;html=1;rounded=0;entryX=0.5;entryY=0;entryDx=0;entryDy=0;" edge="1" parent="1" source="DCzcrUHX8vKdMjeq_GXW-33" target="DCzcrUHX8vKdMjeq_GXW-11">
          <mxGeometry relative="1" as="geometry">
            <mxPoint x="530" y="240" as="sourcePoint" />
            <mxPoint x="690" y="240" as="targetPoint" />
          </mxGeometry>
        </mxCell>
        <mxCell id="DCzcrUHX8vKdMjeq_GXW-35" value="email" style="ellipse;shape=doubleEllipse;margin=3;whiteSpace=wrap;html=1;align=center;" vertex="1" parent="1">
          <mxGeometry x="670" y="90" width="100" height="40" as="geometry" />
        </mxCell>
        <mxCell id="DCzcrUHX8vKdMjeq_GXW-36" value="password" style="ellipse;whiteSpace=wrap;html=1;align=center;" vertex="1" parent="1">
          <mxGeometry x="460" y="150" width="100" height="40" as="geometry" />
        </mxCell>
        <mxCell id="DCzcrUHX8vKdMjeq_GXW-38" value="" style="endArrow=none;html=1;rounded=0;entryX=0.5;entryY=0;entryDx=0;entryDy=0;exitX=1;exitY=1;exitDx=0;exitDy=0;" edge="1" parent="1" source="DCzcrUHX8vKdMjeq_GXW-36" target="DCzcrUHX8vKdMjeq_GXW-11">
          <mxGeometry relative="1" as="geometry">
            <mxPoint x="480" y="190" as="sourcePoint" />
            <mxPoint x="640" y="190" as="targetPoint" />
          </mxGeometry>
        </mxCell>
        <mxCell id="DCzcrUHX8vKdMjeq_GXW-39" value="posts" style="shape=rhombus;perimeter=rhombusPerimeter;whiteSpace=wrap;html=1;align=center;" vertex="1" parent="1">
          <mxGeometry x="440" y="550" width="120" height="60" as="geometry" />
        </mxCell>
        <mxCell id="DCzcrUHX8vKdMjeq_GXW-40" value="" style="endArrow=none;html=1;rounded=0;exitX=0;exitY=1;exitDx=0;exitDy=0;entryX=0.5;entryY=0;entryDx=0;entryDy=0;" edge="1" parent="1" source="DCzcrUHX8vKdMjeq_GXW-11" target="DCzcrUHX8vKdMjeq_GXW-39">
          <mxGeometry relative="1" as="geometry">
            <mxPoint x="720" y="510" as="sourcePoint" />
            <mxPoint x="880" y="510" as="targetPoint" />
            <Array as="points">
              <mxPoint x="450" y="450" />
            </Array>
          </mxGeometry>
        </mxCell>
        <mxCell id="DCzcrUHX8vKdMjeq_GXW-41" value="User posts" style="whiteSpace=wrap;html=1;align=center;" vertex="1" parent="1">
          <mxGeometry x="470" y="800" width="100" height="40" as="geometry" />
        </mxCell>
        <mxCell id="DCzcrUHX8vKdMjeq_GXW-42" value="" style="endArrow=none;html=1;rounded=0;exitX=0.5;exitY=1;exitDx=0;exitDy=0;" edge="1" parent="1" source="DCzcrUHX8vKdMjeq_GXW-39">
          <mxGeometry relative="1" as="geometry">
            <mxPoint x="470" y="680" as="sourcePoint" />
            <mxPoint x="520" y="790" as="targetPoint" />
          </mxGeometry>
        </mxCell>
        <mxCell id="DCzcrUHX8vKdMjeq_GXW-43" value="Has" style="shape=rhombus;perimeter=rhombusPerimeter;whiteSpace=wrap;html=1;align=center;" vertex="1" parent="1">
          <mxGeometry x="170" y="560" width="120" height="60" as="geometry" />
        </mxCell>
        <mxCell id="DCzcrUHX8vKdMjeq_GXW-44" value="" style="endArrow=none;html=1;rounded=0;exitX=0.5;exitY=1;exitDx=0;exitDy=0;entryX=0.5;entryY=0;entryDx=0;entryDy=0;" edge="1" parent="1" source="DCzcrUHX8vKdMjeq_GXW-4" target="DCzcrUHX8vKdMjeq_GXW-43">
          <mxGeometry relative="1" as="geometry">
            <mxPoint x="210" y="460" as="sourcePoint" />
            <mxPoint x="220" y="570" as="targetPoint" />
          </mxGeometry>
        </mxCell>
        <mxCell id="DCzcrUHX8vKdMjeq_GXW-45" value="" style="endArrow=none;html=1;rounded=0;exitX=0.5;exitY=1;exitDx=0;exitDy=0;" edge="1" parent="1" source="DCzcrUHX8vKdMjeq_GXW-43">
          <mxGeometry relative="1" as="geometry">
            <mxPoint x="310" y="800" as="sourcePoint" />
            <mxPoint x="470" y="800" as="targetPoint" />
            <Array as="points">
              <mxPoint x="230" y="800" />
            </Array>
          </mxGeometry>
        </mxCell>
        <mxCell id="DCzcrUHX8vKdMjeq_GXW-46" value="Post Id" style="ellipse;whiteSpace=wrap;html=1;align=center;fontStyle=4;" vertex="1" parent="1">
          <mxGeometry x="300" y="1000" width="100" height="40" as="geometry" />
        </mxCell>
        <mxCell id="DCzcrUHX8vKdMjeq_GXW-47" value="" style="endArrow=none;html=1;rounded=0;entryX=0;entryY=1;entryDx=0;entryDy=0;exitX=0.5;exitY=0;exitDx=0;exitDy=0;" edge="1" parent="1" source="DCzcrUHX8vKdMjeq_GXW-46" target="DCzcrUHX8vKdMjeq_GXW-41">
          <mxGeometry relative="1" as="geometry">
            <mxPoint x="310" y="910" as="sourcePoint" />
            <mxPoint x="470" y="910" as="targetPoint" />
          </mxGeometry>
        </mxCell>
        <mxCell id="DCzcrUHX8vKdMjeq_GXW-48" value="Images" style="ellipse;shape=doubleEllipse;margin=3;whiteSpace=wrap;html=1;align=center;" vertex="1" parent="1">
          <mxGeometry x="430" y="1000" width="100" height="40" as="geometry" />
        </mxCell>
        <mxCell id="DCzcrUHX8vKdMjeq_GXW-49" value="Videos" style="ellipse;shape=doubleEllipse;margin=3;whiteSpace=wrap;html=1;align=center;" vertex="1" parent="1">
          <mxGeometry x="560" y="1000" width="100" height="40" as="geometry" />
        </mxCell>
        <mxCell id="DCzcrUHX8vKdMjeq_GXW-50" value="" style="endArrow=none;html=1;rounded=0;exitX=0.25;exitY=1;exitDx=0;exitDy=0;entryX=0.5;entryY=0;entryDx=0;entryDy=0;" edge="1" parent="1" source="DCzcrUHX8vKdMjeq_GXW-41" target="DCzcrUHX8vKdMjeq_GXW-48">
          <mxGeometry relative="1" as="geometry">
            <mxPoint x="480" y="900" as="sourcePoint" />
            <mxPoint x="480" y="990" as="targetPoint" />
          </mxGeometry>
        </mxCell>
        <mxCell id="DCzcrUHX8vKdMjeq_GXW-51" value="" style="endArrow=none;html=1;rounded=0;exitX=0.25;exitY=1;exitDx=0;exitDy=0;entryX=0.5;entryY=0;entryDx=0;entryDy=0;" edge="1" parent="1" source="DCzcrUHX8vKdMjeq_GXW-41" target="DCzcrUHX8vKdMjeq_GXW-49">
          <mxGeometry relative="1" as="geometry">
            <mxPoint x="540" y="930" as="sourcePoint" />
            <mxPoint x="700" y="930" as="targetPoint" />
          </mxGeometry>
        </mxCell>
        <mxCell id="DCzcrUHX8vKdMjeq_GXW-52" value="Creation Time Stamp" style="ellipse;whiteSpace=wrap;html=1;align=center;" vertex="1" parent="1">
          <mxGeometry x="190" y="950" width="100" height="40" as="geometry" />
        </mxCell>
        <mxCell id="DCzcrUHX8vKdMjeq_GXW-53" value="" style="endArrow=none;html=1;rounded=0;entryX=0;entryY=1;entryDx=0;entryDy=0;" edge="1" parent="1" target="DCzcrUHX8vKdMjeq_GXW-41">
          <mxGeometry relative="1" as="geometry">
            <mxPoint x="240" y="950" as="sourcePoint" />
            <mxPoint x="400" y="950" as="targetPoint" />
          </mxGeometry>
        </mxCell>
        <mxCell id="DCzcrUHX8vKdMjeq_GXW-54" value="Modified Time" style="ellipse;whiteSpace=wrap;html=1;align=center;" vertex="1" parent="1">
          <mxGeometry x="690" y="1000" width="100" height="40" as="geometry" />
        </mxCell>
        <mxCell id="DCzcrUHX8vKdMjeq_GXW-55" value="" style="endArrow=none;html=1;rounded=0;entryX=0.5;entryY=0;entryDx=0;entryDy=0;" edge="1" parent="1" target="DCzcrUHX8vKdMjeq_GXW-54">
          <mxGeometry relative="1" as="geometry">
            <mxPoint x="560" y="840" as="sourcePoint" />
            <mxPoint x="720" y="840" as="targetPoint" />
          </mxGeometry>
        </mxCell>
        <mxCell id="DCzcrUHX8vKdMjeq_GXW-56" value="Has" style="shape=rhombus;perimeter=rhombusPerimeter;whiteSpace=wrap;html=1;align=center;" vertex="1" parent="1">
          <mxGeometry x="890" y="590" width="120" height="60" as="geometry" />
        </mxCell>
        <mxCell id="DCzcrUHX8vKdMjeq_GXW-57" value="Post Like" style="whiteSpace=wrap;html=1;align=center;" vertex="1" parent="1">
          <mxGeometry x="1240" y="300" width="140" height="50" as="geometry" />
        </mxCell>
        <mxCell id="DCzcrUHX8vKdMjeq_GXW-60" value="Can" style="shape=rhombus;perimeter=rhombusPerimeter;whiteSpace=wrap;html=1;align=center;" vertex="1" parent="1">
          <mxGeometry x="910" y="305" width="120" height="60" as="geometry" />
        </mxCell>
        <mxCell id="DCzcrUHX8vKdMjeq_GXW-61" value="" style="endArrow=none;html=1;rounded=0;exitX=1;exitY=0.75;exitDx=0;exitDy=0;entryX=0;entryY=0.5;entryDx=0;entryDy=0;" edge="1" parent="1" source="DCzcrUHX8vKdMjeq_GXW-11" target="DCzcrUHX8vKdMjeq_GXW-60">
          <mxGeometry relative="1" as="geometry">
            <mxPoint x="820" y="440" as="sourcePoint" />
            <mxPoint x="980" y="440" as="targetPoint" />
          </mxGeometry>
        </mxCell>
        <mxCell id="DCzcrUHX8vKdMjeq_GXW-64" value="" style="shape=link;html=1;rounded=0;entryX=0;entryY=0.75;entryDx=0;entryDy=0;exitX=1;exitY=0.5;exitDx=0;exitDy=0;" edge="1" parent="1" source="DCzcrUHX8vKdMjeq_GXW-60" target="DCzcrUHX8vKdMjeq_GXW-57">
          <mxGeometry relative="1" as="geometry">
            <mxPoint x="1030" y="330" as="sourcePoint" />
            <mxPoint x="1190" y="330" as="targetPoint" />
            <Array as="points" />
          </mxGeometry>
        </mxCell>
        <mxCell id="DCzcrUHX8vKdMjeq_GXW-66" value="" style="shape=link;html=1;rounded=0;exitX=1;exitY=0.5;exitDx=0;exitDy=0;entryX=0.363;entryY=1.023;entryDx=0;entryDy=0;entryPerimeter=0;" edge="1" parent="1" source="DCzcrUHX8vKdMjeq_GXW-56" target="DCzcrUHX8vKdMjeq_GXW-57">
          <mxGeometry relative="1" as="geometry">
            <mxPoint x="1100" y="570" as="sourcePoint" />
            <mxPoint x="1260" y="570" as="targetPoint" />
          </mxGeometry>
        </mxCell>
        <mxCell id="DCzcrUHX8vKdMjeq_GXW-68" value="" style="endArrow=none;html=1;rounded=0;exitX=1;exitY=0;exitDx=0;exitDy=0;entryX=0;entryY=0.5;entryDx=0;entryDy=0;" edge="1" parent="1" source="DCzcrUHX8vKdMjeq_GXW-41" target="DCzcrUHX8vKdMjeq_GXW-56">
          <mxGeometry relative="1" as="geometry">
            <mxPoint x="920" y="640" as="sourcePoint" />
            <mxPoint x="1080" y="640" as="targetPoint" />
            <Array as="points" />
          </mxGeometry>
        </mxCell>
        <mxCell id="DCzcrUHX8vKdMjeq_GXW-69" value="time Stamp" style="ellipse;whiteSpace=wrap;html=1;align=center;" vertex="1" parent="1">
          <mxGeometry x="1210" y="110" width="100" height="40" as="geometry" />
        </mxCell>
        <mxCell id="DCzcrUHX8vKdMjeq_GXW-70" value="&lt;span style=&quot;border-bottom: 1px dotted&quot;&gt;Attribute&lt;/span&gt;" style="ellipse;whiteSpace=wrap;html=1;align=center;" vertex="1" parent="1">
          <mxGeometry x="1370" y="100" width="100" height="40" as="geometry" />
        </mxCell>
        <mxCell id="DCzcrUHX8vKdMjeq_GXW-71" value="" style="endArrow=none;html=1;rounded=0;entryX=0.5;entryY=1;entryDx=0;entryDy=0;exitX=0.892;exitY=-0.071;exitDx=0;exitDy=0;exitPerimeter=0;" edge="1" parent="1" source="DCzcrUHX8vKdMjeq_GXW-57" target="DCzcrUHX8vKdMjeq_GXW-70">
          <mxGeometry relative="1" as="geometry">
            <mxPoint x="870" y="390" as="sourcePoint" />
            <mxPoint x="1030" y="390" as="targetPoint" />
          </mxGeometry>
        </mxCell>
        <mxCell id="DCzcrUHX8vKdMjeq_GXW-72" value="" style="endArrow=none;html=1;rounded=0;exitX=0.5;exitY=1;exitDx=0;exitDy=0;entryX=0.5;entryY=0;entryDx=0;entryDy=0;" edge="1" parent="1" source="DCzcrUHX8vKdMjeq_GXW-69" target="DCzcrUHX8vKdMjeq_GXW-57">
          <mxGeometry relative="1" as="geometry">
            <mxPoint x="1140" y="190" as="sourcePoint" />
            <mxPoint x="1300" y="190" as="targetPoint" />
          </mxGeometry>
        </mxCell>
      </root>
    </mxGraphModel>
  </diagram>
</mxfile>
